<?xml version="1.0" encoding="UTF-8"?>
<svg version="1.1" xmlns="http://www.w3.org/2000/svg" width="418" height="467">
<path d="M0 0 C137.94 0 275.88 0 418 0 C418 154.11 418 308.22 418 467 C280.06 467 142.12 467 0 467 C0 312.89 0 158.78 0 0 Z " fill="#21D1EC" transform="translate(0,0)"/>
<path d="M0 0 C137.94 0 275.88 0 418 0 C418 154.11 418 308.22 418 467 C280.06 467 142.12 467 0 467 C0 312.89 0 158.78 0 0 Z M38 32 C37.4755211 98.48612329 37.4755211 98.48612329 37.12109375 164.97265625 C37.08585329 173.94027292 37.04948497 182.90788393 37.01123047 191.87548828 C37.00648299 192.99939535 37.00173551 194.12330242 36.99684417 195.28126729 C36.91860504 213.41428963 36.77672591 231.54628212 36.61124967 249.67869426 C36.44278167 268.2945219 36.34291319 286.9098113 36.30640709 305.52636993 C36.28173576 317.00986692 36.20389507 328.49045427 36.0575036 339.97305523 C35.96217866 347.85263232 35.93363545 355.73071071 35.95697521 363.61082222 C35.96848181 368.15519798 35.95116295 372.69450104 35.85430145 377.23796844 C34.61365757 396.45626915 34.61365757 396.45626915 41.95277786 413.18581772 C45.6323807 416.38823979 49.53423922 418.79351087 53.90379548 420.9390924 C56.67591097 422.34208451 59.03402481 424.14503156 61.45703125 426.078125 C62.90677014 427.13827244 64.35850588 428.19569618 65.8125 429.25 C70.25199914 432.47273396 74.67082853 435.68773559 78.91015625 439.171875 C79.50143311 439.65237305 80.09270996 440.13287109 80.7019043 440.62792969 C82.25838252 441.90436448 83.79790548 443.20139777 85.3359375 444.5 C86.21507812 444.995 87.09421875 445.49 88 446 C91.68137779 444.91273033 94.40708972 443.13923207 97.4140625 440.796875 C98.2488916 440.15250488 99.0837207 439.50813477 99.94384766 438.84423828 C101.27101807 437.80759033 101.27101807 437.80759033 102.625 436.75 C104.49901437 435.30340975 106.37403755 433.85812555 108.25 432.4140625 C109.67699219 431.31433105 109.67699219 431.31433105 111.1328125 430.19238281 C115.59112626 426.78335203 120.10264217 423.44837442 124.625 420.125 C125.42373535 419.53686523 126.2224707 418.94873047 127.04541016 418.34277344 C135.71956638 411.97354534 135.71956638 411.97354534 137.91772461 412.1809082 C140.41631406 413.16376289 142.19853826 414.45238018 144.31640625 416.10546875 C145.15437744 416.75298096 145.99234863 417.40049316 146.85571289 418.06762695 C147.74895264 418.76718506 148.64219238 419.46674316 149.5625 420.1875 C151.44689871 421.64454665 153.332339 423.10024708 155.21875 424.5546875 C156.17652344 425.29428711 157.13429688 426.03388672 158.12109375 426.79589844 C162.55866521 430.19332001 167.05550105 433.50801443 171.5625 436.8125 C172.35277588 437.39217529 173.14305176 437.97185059 173.95727539 438.5690918 C175.34925 439.58960951 176.74173786 440.60942797 178.13500977 441.62817383 C179.48150942 442.61861519 180.79950257 443.64821766 182.09790039 444.70092773 C183.93673205 446.28544397 183.93673205 446.28544397 186.2421875 445.578125 C190.17219834 443.32922361 193.5996006 440.5811881 197.125 437.75 C203.75208301 432.5100766 210.44359887 427.38013807 217.25 422.375 C218.42780029 421.50633301 218.42780029 421.50633301 219.62939453 420.62011719 C221.09163028 419.54720052 222.55924841 418.48156438 224.03320312 417.42480469 C225.27548495 416.52485971 226.50110208 415.60101688 227.70117188 414.64550781 C229.234375 413.4765625 229.234375 413.4765625 232 412 C235.68196105 413.0868123 238.40666565 414.86043759 241.4140625 417.203125 C242.24873047 417.84749512 243.08339844 418.49186523 243.94335938 419.15576172 C245.27077148 420.19240967 245.27077148 420.19240967 246.625 421.25 C248.50175336 422.69641711 250.37937724 424.14170532 252.2578125 425.5859375 C253.20946289 426.3190918 254.16111328 427.05224609 255.14160156 427.80761719 C259.56639171 431.20141762 264.02383877 434.54934865 268.5 437.875 C269.67296631 438.75720215 269.67296631 438.75720215 270.86962891 439.65722656 C272.88564143 441.15053639 274.92744126 442.58675302 277 444 C278.24716797 444.87205078 278.24716797 444.87205078 279.51953125 445.76171875 C283.28855204 446.12378216 285.07032948 444.17667282 287.92602539 441.85766602 C288.67231201 441.22401123 289.41859863 440.59035645 290.1875 439.9375 C291.79190655 438.62990618 293.39874795 437.32529511 295.0078125 436.0234375 C295.83055664 435.35280273 296.65330078 434.68216797 297.50097656 433.99121094 C302.14936907 430.28739213 307.00711547 426.87776622 311.85107422 423.43676758 C316.47047914 420.14298909 320.92216504 416.73971982 325.17578125 412.9765625 C327.77772012 411.58366161 329.20068559 412.22265894 332 413 C333.91845703 414.17651367 333.91845703 414.17651367 335.7578125 415.66796875 C336.80582031 416.50303955 336.80582031 416.50303955 337.875 417.35498047 C338.6175 417.95971191 339.36 418.56444336 340.125 419.1875 C341.73000213 420.46706544 343.33683416 421.74433833 344.9453125 423.01953125 C345.77450195 423.67775879 346.60369141 424.33598633 347.45800781 425.01416016 C351.57081973 428.22714634 355.78300055 431.30080405 360 434.375 C365.91650101 438.69569718 371.73576118 443.07213468 377.3828125 447.7421875 C378.79009992 449.10232344 378.79009992 449.10232344 380 449 C380 311.39 380 173.78 380 32 C267.14 32 154.28 32 38 32 Z " fill="#0E2132" transform="translate(0,0)"/>
<path d="M0 0 C1.48720844 -0.00813853 2.97440478 -0.0188263 4.46157837 -0.03186035 C8.48660241 -0.05913721 12.51070035 -0.04864092 16.5357399 -0.02958584 C20.75521523 -0.01435567 24.97461323 -0.02849405 29.1940918 -0.03790283 C36.27895287 -0.04880737 43.36343821 -0.03446322 50.44824219 -0.00585938 C58.62999552 0.02679255 66.81085168 0.01621472 74.99258327 -0.01681781 C82.02724841 -0.04407843 89.06164404 -0.04787208 96.09634495 -0.03218579 C100.29349529 -0.02284935 104.49022442 -0.02153498 108.68734741 -0.04140472 C112.63417766 -0.05878564 116.57985552 -0.04662934 120.52656174 -0.01203918 C121.97168442 -0.00413096 123.41690471 -0.00634121 124.86198807 -0.01961517 C137.1209791 -0.12180764 137.1209791 -0.12180764 141.71557617 3.69989014 C144.39086326 6.48437466 145.31540983 8.14207082 145.61328125 12.08886719 C145.35194045 15.943644 144.60197864 17.69815827 142.36328125 20.77636719 C142.93175781 20.85113281 143.50023437 20.92589844 144.0859375 21.00292969 C150.20219253 22.04442888 154.27268184 24.03988367 158.36328125 28.77636719 C160.59685946 32.59893391 160.88212499 35.32913513 160.36328125 39.77636719 C157.12727938 46.91804751 151.31436472 52.23816583 145.83129883 57.66479492 C144.86766457 58.62922151 143.90468509 59.5943027 142.94230652 60.5599823 C140.34601111 63.16137739 137.74055197 65.75340815 135.13312364 68.34363818 C132.40099852 71.06065396 129.67705186 73.7858464 126.95207214 76.51002502 C122.38166618 81.07674876 117.80567862 85.6378153 113.22583008 90.19506836 C107.34378962 96.04814805 101.47112364 101.91054171 95.60132313 107.77589321 C90.55173939 112.82150182 85.49790237 117.86284396 80.44337249 122.90349698 C78.81886967 124.52390013 77.19495439 126.14489034 75.57111549 127.76595879 C73.0249883 130.30720015 70.47622683 132.84577039 67.92537117 135.38226509 C66.54054 136.76040298 65.15813289 138.14097535 63.77578735 139.52160645 C62.95567673 140.33600693 62.1355661 141.15040741 61.29060364 141.98948669 C60.57625562 142.70086005 59.8619076 143.41223341 59.12591267 144.14516354 C56.11325011 146.93319177 53.76842757 147.07230915 49.73828125 147.27636719 C48.73539062 147.34855469 47.7325 147.42074219 46.69921875 147.49511719 C38.02938656 145.62714398 30.72434431 135.31682952 24.625 129.24121094 C23.88037475 128.50082675 23.88037475 128.50082675 23.12070656 127.74548531 C20.50154101 125.14118456 17.88516446 122.53412162 15.27124023 119.92456055 C12.58372472 117.24255956 9.88702794 114.56998955 7.18814373 111.899436 C5.09924936 109.82919991 3.01712679 107.7522524 0.93677711 105.6734333 C-0.05464348 104.68502461 -1.0485471 103.69909963 -2.04503822 102.71580315 C-3.43727372 101.34071942 -4.81907144 99.95509228 -6.20043945 98.5690918 C-7.38002983 97.39496986 -7.38002983 97.39496986 -8.58345032 96.1971283 C-11.71571315 92.50425506 -13.46220057 89.14758147 -14.07421875 84.33886719 C-13.43354495 79.12195198 -11.53922186 75.55996385 -7.63671875 71.90136719 C-3.39317346 69.51437296 1.5705593 68.84681791 6.36328125 69.77636719 C11.99610599 73.03722651 16.27521274 77.43091326 20.82421875 82.04199219 C21.61478668 82.83539001 22.40535461 83.62878784 23.21987915 84.44622803 C25.73076801 86.9682648 28.23459249 89.49718457 30.73828125 92.02636719 C32.44485013 93.74297281 34.15187647 95.45912378 35.859375 97.17480469 C40.03265602 101.37007458 44.20016693 105.57100963 48.36328125 109.77636719 C51.45903665 108.39812302 53.57014414 106.81733601 55.95733643 104.42282104 C56.65279572 103.73011108 57.348255 103.03740112 58.06478882 102.32369995 C58.81716827 101.56412994 59.56954773 100.80455994 60.34472656 100.02197266 C61.14510345 99.22188782 61.94548035 98.42180298 62.77011108 97.59747314 C65.41531072 94.95087982 68.0533551 92.29727191 70.69140625 89.64355469 C72.52371344 87.80751752 74.35646259 85.97192133 76.18963623 84.13674927 C80.52103559 79.798493 84.84795229 75.45581215 89.17273021 71.11095631 C94.09743274 66.16388875 99.02782455 61.22250802 103.95870066 56.28159499 C114.09990015 46.1194979 124.23394109 35.95028473 134.36328125 25.77636719 C133.21971822 25.77555004 133.21971822 25.77555004 132.0530529 25.77471638 C113.49943771 25.75974656 94.94607157 25.71729167 76.39259148 25.64427662 C67.42022866 25.60962916 58.44801945 25.58427142 49.47558594 25.58081055 C41.6548384 25.57777031 33.83436442 25.55727189 26.01372254 25.51584262 C21.87298857 25.49451618 17.73264347 25.48191004 13.5918541 25.49021339 C9.69283949 25.497756 5.79461268 25.48192336 1.89574242 25.44830704 C0.46633539 25.44007613 -0.96315002 25.44032119 -2.39254951 25.44976997 C-14.53882612 25.52209956 -14.53882612 25.52209956 -18.44845581 22.3625946 C-21.58290386 18.65810584 -23.05212863 16.30767532 -22.69921875 11.40136719 C-22.66957031 10.67175781 -22.63992187 9.94214844 -22.609375 9.19042969 C-18.62097676 -0.70848642 -9.22571262 -0.08474374 0 0 Z " fill="#0F182B" transform="translate(135.63671875,244.2236328125)"/>
<path d="M0 0 C0.70649329 -0.00467997 1.41298658 -0.00935994 2.14088875 -0.01418173 C4.50232642 -0.02612388 6.86318291 -0.01667785 9.22462463 -0.00723267 C10.9200423 -0.01129876 12.61545731 -0.01664086 14.31086731 -0.02316284 C18.91213311 -0.03683879 23.5131971 -0.03153637 28.11446643 -0.02202559 C32.9309816 -0.01442921 37.74747951 -0.02147466 42.56399536 -0.02618408 C50.65354005 -0.03164222 58.74300258 -0.02444904 66.83253479 -0.01016235 C76.18191156 0.00615875 85.53109201 0.00087981 94.88046402 -0.01564157 C102.90948396 -0.02926136 110.93844485 -0.03117352 118.96747261 -0.02332556 C123.76198262 -0.01865105 128.5564004 -0.018018 133.35090446 -0.02793503 C137.85960438 -0.03660936 142.36805159 -0.03057423 146.87672424 -0.01325226 C148.53030033 -0.00928968 150.18389772 -0.01041756 151.83746529 -0.01704025 C154.0971703 -0.02525523 156.35606883 -0.01493548 158.61572266 0 C160.51132761 0.00169662 160.51132761 0.00169662 162.44522762 0.00342751 C167.5948876 0.57086651 170.80016404 2.22736266 174.30885315 6.00595093 C176.36722557 10.45203536 176.36993038 13.73107985 174.87135315 18.38095093 C172.30600119 21.62139551 170.78454815 23.07655259 166.87135315 24.38095093 C164.55400508 24.4860505 162.23371339 24.52911481 159.91401672 24.5415802 C158.84564776 24.54921193 158.84564776 24.54921193 157.75569558 24.55699784 C155.36293494 24.57272606 152.9702045 24.58124832 150.57740784 24.58969116 C148.864205 24.59922927 147.15100409 24.60912041 145.43780518 24.61933899 C139.80630277 24.65072692 134.17478556 24.67099001 128.54322815 24.68954468 C127.58519193 24.692842 126.6271557 24.69613932 125.64008808 24.69953656 C116.60545367 24.73031555 107.57081594 24.75702362 98.53614426 24.77395535 C86.97924847 24.79586787 75.42281692 24.83785345 63.86610675 24.90739292 C55.74031665 24.95462818 47.61465185 24.97888821 39.48872876 24.98615223 C34.63527971 24.99110888 29.78235391 25.00619111 24.92905426 25.04589653 C20.36196231 25.08276835 15.79569234 25.09117094 11.22847939 25.0778904 C9.55432407 25.07794434 7.88013228 25.08823686 6.20611382 25.10964203 C-8.0163156 25.28174623 -8.0163156 25.28174623 -12.61418152 21.48387146 C-15.5794295 17.82467253 -16.23759842 16.10274952 -16.3981781 11.56063843 C-15.95690284 7.9920646 -14.50655555 6.00916581 -12.12864685 3.38095093 C-8.04321364 0.33898204 -5.0435854 0.00451549 0 0 Z " fill="#0F192C" transform="translate(129.12864685058594,124.61904907226563)"/>
<path d="M0 0 C1.60859138 -0.01919243 1.60859138 -0.01919243 3.24967957 -0.03877258 C5.00695374 -0.03673325 5.00695374 -0.03673325 6.79972839 -0.03465271 C8.65642403 -0.04976646 8.65642403 -0.04976646 10.55062866 -0.06518555 C13.94348441 -0.08880518 17.3357894 -0.09871835 20.72868943 -0.10063291 C22.85013257 -0.10276683 24.97151817 -0.10917436 27.09294701 -0.11712456 C34.49915093 -0.14487524 41.90519296 -0.15713074 49.31144714 -0.1547699 C56.2065217 -0.15296869 63.10089124 -0.18460245 69.99578744 -0.23200089 C75.92207668 -0.27128339 81.84813606 -0.28731923 87.77455443 -0.28540367 C91.31121622 -0.28464017 94.84725166 -0.29310979 98.38378334 -0.32493782 C102.33130306 -0.35949472 106.27786346 -0.34570756 110.22550964 -0.32762146 C111.97367477 -0.35290924 111.97367477 -0.35290924 113.75715637 -0.37870789 C120.15313674 -0.3042449 123.91713751 0.30518993 128.51659679 4.91894627 C131.2307783 8.29924273 130.99441437 11.15751089 130.70671082 15.40113831 C129.18678978 18.58573477 127.42375123 21.13693796 124.70671082 23.40113831 C121.70812025 24.40066849 119.69862756 24.53618065 116.56491089 24.55503845 C115.50086029 24.56363892 114.43680969 24.57223938 113.34051514 24.58110046 C111.58951759 24.58749039 111.58951759 24.58749039 109.80314636 24.5940094 C108.57364258 24.60218689 107.34413879 24.61036438 106.07737732 24.61878967 C101.99939805 24.64364911 97.92145581 24.66031275 93.84342957 24.67457581 C92.43848476 24.67993668 91.03354003 24.68531419 89.62859535 24.69070816 C83.78405871 24.71233091 77.9395248 24.73106735 72.09495831 24.74233055 C63.72408407 24.75856966 55.35367398 24.79175268 46.98297471 24.8487314 C41.09412179 24.8874477 35.20539293 24.90696513 29.31641608 24.91225111 C25.80049212 24.91590203 22.28506357 24.92789448 18.76927757 24.96035385 C14.84553317 24.99606153 10.92237026 24.99205926 6.99845886 24.9846344 C5.83719986 25.00103973 4.67594086 25.01744507 3.47949219 25.03434753 C-5.30193527 24.96623802 -5.30193527 24.96623802 -8.97558594 21.98576355 C-11.94596024 18.67330134 -13.09449592 16.92522 -13.66828918 12.52613831 C-13.10764817 7.85412984 -10.92358777 4.88813059 -7.48349476 1.7504282 C-4.79194721 0.09228344 -3.14822526 0.01699836 0 0 Z " fill="#0F182B" transform="translate(126.29328918457031,184.59886169433594)"/>
</svg>
